# xmcd
#
# Track frame offsets:
#	150
#	15612
#	34205
#	51245
#	66912
#	88344
#	104075
#	125771
#	141874
#	158734
#	172579
#	187548
#	208386
#	225934
#	246551
#	262032
#	279328
#	295974
#	309993
#	329341
#	345128
#
# Disc length: 4800 seconds
#
# Revision: 1
# Processed by: cddbd v1.5.2PL0 Copyright (c) Steve Scherf et al.
# Submitted via: audiograbber 1.83.01
#
DISCID=3312be15
DTITLE=Neu Bei -  BOOM-BOOM 11
DYEAR=1999
DGENRE=Oldies
TTITLE0=SMILES and MORE - JET SET LIFE
TTITLE1=SCATMAN JOHN - ICHI NI SEN GO!
TTITLE2=TAKRAN - BU CECE (KIR ZINCIRKLENI)
TTITLE3=JONAS - GOT IT BAD FOR YOU
TTITLE4=SAVAGE GARDEN - AFFIRMATION
TTITLE5=TINA TURNER - WHEN HEARTACHE IS OVER
TTITLE6=RICKY MARTIN - SHES ALL I EVER HAD
TTITLE7=CAPTAIN JACK - IN THE NAVY ´99
TTITLE8=COLLECTIVE - CALL ME WHEN ZOU´RE SAD
TTITLE9=EROTIC - MAMBO NO. SEX
TTITLE10=BAMBEE - TYPICAL TROPICAL
TTITLE11=M. CAREY feat. JAY Z - HEARTBREAKER
TTITLE12=L.CANRIO - SUMMER NIGHT
TTITLE13=PUFF DADDY feat. R. KELLY - STATISFY YOU 
TTITLE14=SHAFT - (MUCHO MAMBO) SWAY (Radio Edit)
TTITLE15=RUN OF RUN .DMC - PRAISE MY DJS´
TTITLE16=CONSILIO - TAKE MY HEART
TTITLE17=SODA - HEY YOU
TTITLE18=PET SHOP BOYS - NEW YORK CITY BOY
TTITLE19=DJ BOBO - DO YOU BELIEVE
TTITLE20=DESTINYS CHILD - BUS A BON
EXTD=
EXTT0=
EXTT1=
EXTT2=
EXTT3=
EXTT4=
EXTT5=
EXTT6=
EXTT7=
EXTT8=
EXTT9=
EXTT10=
EXTT11=
EXTT12=
EXTT13=
EXTT14=
EXTT15=
EXTT16=
EXTT17=
EXTT18=
EXTT19=
EXTT20=
PLAYORDER=
